<svg width="24" height="24" viewBox="0 0 24 24" fill="none" xmlns="http://www.w3.org/2000/svg">
<path d="M12 2.24707C6.62391 2.24707 2.25 6.62098 2.25 11.9971C2.25 17.3732 6.62391 21.7471 12 21.7471C17.3761 21.7471 21.75 17.3732 21.75 11.9971C21.75 6.62098 17.3761 2.24707 12 2.24707ZM15.75 12.7471H12.75V15.7471C12.75 15.946 12.671 16.1368 12.5303 16.2774C12.3897 16.4181 12.1989 16.4971 12 16.4971C11.8011 16.4971 11.6103 16.4181 11.4697 16.2774C11.329 16.1368 11.25 15.946 11.25 15.7471V12.7471H8.25C8.05109 12.7471 7.86032 12.6681 7.71967 12.5274C7.57902 12.3867 7.5 12.196 7.5 11.9971C7.5 11.7982 7.57902 11.6074 7.71967 11.4667C7.86032 11.3261 8.05109 11.2471 8.25 11.2471H11.25V8.24707C11.25 8.04816 11.329 7.85739 11.4697 7.71674C11.6103 7.57609 11.8011 7.49707 12 7.49707C12.1989 7.49707 12.3897 7.57609 12.5303 7.71674C12.671 7.85739 12.75 8.04816 12.75 8.24707V11.2471H15.75C15.9489 11.2471 16.1397 11.3261 16.2803 11.4667C16.421 11.6074 16.5 11.7982 16.5 11.9971C16.5 12.196 16.421 12.3867 16.2803 12.5274C16.1397 12.6681 15.9489 12.7471 15.75 12.7471Z" fill="#008C8C"/>
</svg>
