<svg width="19" height="19" viewBox="0 0 19 19" fill="none" xmlns="http://www.w3.org/2000/svg">
<path d="M8.17 11.21L6.10375 9.14375C5.92958 8.96958 5.71583 8.8825 5.4625 8.8825C5.20917 8.8825 4.9875 8.9775 4.7975 9.1675C4.62333 9.34167 4.53625 9.56333 4.53625 9.8325C4.53625 10.1017 4.62333 10.3233 4.7975 10.4975L7.505 13.205C7.67917 13.3792 7.90083 13.4662 8.17 13.4662C8.43917 13.4662 8.66083 13.3792 8.835 13.205L14.2262 7.81375C14.4004 7.63958 14.4875 7.42583 14.4875 7.1725C14.4875 6.91917 14.3925 6.6975 14.2025 6.5075C14.0283 6.33333 13.8067 6.24625 13.5375 6.24625C13.2683 6.24625 13.0467 6.33333 12.8725 6.5075L8.17 11.21ZM9.5 19C8.18583 19 6.95083 18.7505 5.795 18.2514C4.63917 17.7523 3.63375 17.0756 2.77875 16.2212C1.92375 15.3663 1.24703 14.3608 0.7486 13.205C0.250167 12.0492 0.000633333 10.8142 0 9.5C0 8.18583 0.249533 6.95083 0.7486 5.795C1.24767 4.63917 1.92438 3.63375 2.77875 2.77875C3.63375 1.92375 4.63917 1.24703 5.795 0.7486C6.95083 0.250167 8.18583 0.000633333 9.5 0C10.8142 0 12.0492 0.249533 13.205 0.7486C14.3608 1.24767 15.3663 1.92438 16.2212 2.77875C17.0763 3.63375 17.7533 4.63917 18.2523 5.795C18.7514 6.95083 19.0006 8.18583 19 9.5C19 10.8142 18.7505 12.0492 18.2514 13.205C17.7523 14.3608 17.0756 15.3663 16.2212 16.2212C15.3663 17.0763 14.3608 17.7533 13.205 18.2523C12.0492 18.7514 10.8142 19.0006 9.5 19Z" fill="white"/>
</svg>
