<svg width="24" height="24" viewBox="0 0 24 24" fill="none" xmlns="http://www.w3.org/2000/svg">
<path d="M20.4728 3.525C19.3619 2.40727 18.0407 1.52034 16.5852 0.915347C15.1297 0.310352 13.5688 -0.000741533 11.9925 1.32727e-06C5.35835 1.32727e-06 0 5.37 0 12C0 18.63 5.35835 24 11.9925 24C17.591 24 22.2589 20.175 23.5947 15H20.4728C19.8545 16.7543 18.7067 18.2736 17.1878 19.3483C15.6688 20.4229 13.8536 21.0001 11.9925 21C7.02439 21 2.98687 16.965 2.98687 12C2.98687 7.035 7.02439 3 11.9925 3C14.4841 3 16.7054 4.035 18.3265 5.67L13.4934 10.5H24V1.32727e-06L20.4728 3.525Z" fill="#008C8C"/>
</svg>
